<?xml version="1.0" ?><!DOCTYPE svg  PUBLIC '-//W3C//DTD SVG 1.1//EN'  'http://www.w3.org/Graphics/SVG/1.1/DTD/svg11.dtd'><svg enable-background="new 0 0 128 128" height="128px" version="1.1" viewBox="0 0 128 128" width="128px" xml:space="preserve" xmlns="http://www.w3.org/2000/svg" xmlns:xlink="http://www.w3.org/1999/xlink"><g id="Layer_2"/><g id="Layer_1"><g><path d="    M72.701,62.794c9.314,3.338,15.979,12.245,15.979,22.708c0,13.319-10.797,24.115-24.115,24.115S40.449,98.821,40.449,85.502    c0-10.611,6.855-19.623,16.379-22.846" fill="none" stroke="#231F20" stroke-linecap="round" stroke-linejoin="round" stroke-miterlimit="10" stroke-width="5"/><path d="    M72.662,35.528c4.732,2.705,7.924,7.802,7.924,13.645c0,8.674-7.031,15.704-15.705,15.704c-8.672,0-15.703-7.03-15.703-15.704    c0-5.743,3.082-10.767,7.684-13.505" fill="none" stroke="#231F20" stroke-linecap="round" stroke-linejoin="round" stroke-miterlimit="10" stroke-width="5"/><path d="    M73.715,35.538c-8.445,3.511-17.609-0.023-17.609-0.023l1.553-17.132l14.547,0.019C72.205,18.401,73.359,33.82,73.715,35.538z" fill="none" stroke="#231F20" stroke-linecap="round" stroke-linejoin="round" stroke-miterlimit="10" stroke-width="5"/><line fill="none" stroke="#231F20" stroke-linecap="round" stroke-linejoin="round" stroke-miterlimit="10" stroke-width="5" x1="85.053" x2="102.303" y1="71.305" y2="56.685"/><path d="M67.924,57.215c2.709-0.277,13.879-1.415,13.879-1.415s-8.287-4.11-11.902-5.748    C66.283,48.414,65.213,57.491,67.924,57.215z" fill="#231F20"/><circle cx="71.612" cy="44.236" fill="#231F20" r="2.339"/><circle cx="61.55" cy="44.888" fill="#231F20" r="2.339"/><line fill="none" stroke="#231F20" stroke-linecap="round" stroke-linejoin="round" stroke-miterlimit="10" stroke-width="5" x1="92.422" x2="94.117" y1="64.983" y2="55.99"/><line fill="none" stroke="#231F20" stroke-linecap="round" stroke-linejoin="round" stroke-miterlimit="10" stroke-width="5" x1="94.9" x2="100.584" y1="62.856" y2="63.902"/><line fill="none" stroke="#231F20" stroke-linecap="round" stroke-linejoin="round" stroke-miterlimit="10" stroke-width="5" x1="42.631" x2="25.697" y1="75.465" y2="61.114"/><line fill="none" stroke="#231F20" stroke-linecap="round" stroke-linejoin="round" stroke-miterlimit="10" stroke-width="5" x1="35.58" x2="34.164" y1="69.413" y2="61.911"/><line fill="none" stroke="#231F20" stroke-linecap="round" stroke-linejoin="round" stroke-miterlimit="10" stroke-width="5" x1="33.1" x2="25.697" y1="67.286" y2="68.719"/></g></g></svg>